<svg width="24" height="24" viewBox="0 0 24 24" fill="none" xmlns="http://www.w3.org/2000/svg">
<path fill-rule="evenodd" clip-rule="evenodd" d="M21.6 10.4477V8.19121H19.2V10.4477H16.8V12.7047H19.2V14.9611H21.6V12.7047H24V10.4477H21.6ZM14.88 10.4477C14.9448 10.4477 15 11.4316 15 11.9043C15 16.0157 12.0696 19.1998 7.65242 19.1998C3.42242 19.1998 0 15.9787 0 12.0016C0 8.02331 3.42242 4.7998 7.65242 4.7998C9.71882 4.7998 11.4468 5.49726 12.78 6.66953L10.7028 8.52754C10.1352 8.01305 9.13922 7.3709 7.65242 7.3709C5.04002 7.3709 2.90761 9.31296 2.90761 11.8211C2.90761 14.3292 5.04002 16.1793 7.65242 16.1793C10.6812 16.1793 11.8188 13.8329 11.9928 12.7047H7.2V10.4477H14.88Z" fill="#313030"/>
</svg>
