<svg width="19" height="17" viewBox="0 0 19 17" fill="none" xmlns="http://www.w3.org/2000/svg">
<g clip-path="url(#clip0_107407_2)">
<path fill-rule="evenodd" clip-rule="evenodd" d="M19 17H14.8006V11.0237C14.8006 9.45965 14.1442 8.39163 12.6993 8.39163C11.5948 8.39163 10.9803 9.11243 10.6944 9.80688C10.5869 10.0559 10.6037 10.4032 10.6037 10.7504V17H6.44359C6.44359 17 6.49714 6.41368 6.44359 5.45148H10.6037V7.2641C10.8499 6.47147 12.179 5.34055 14.3001 5.34055C16.932 5.34055 19 7.00145 19 10.5787V17ZM2.23682 4.0069H2.20961C0.86925 4.0069 0 3.12418 0 2.00515C0 0.86445 0.894727 0 2.2623 0C3.62857 0 4.46889 0.862325 4.49523 2.00175C4.49523 3.12078 3.62857 4.0069 2.23682 4.0069ZM0.479318 5.45148H4.18259V17H0.479318V5.45148Z" fill="#313030"/>
</g>
<defs>
<clipPath id="clip0_107407_2">
<rect width="19" height="17" fill="white"/>
</clipPath>
</defs>
</svg>
