<svg width="21" height="21" viewBox="0 0 21 21" fill="none" xmlns="http://www.w3.org/2000/svg">
<path fill-rule="evenodd" clip-rule="evenodd" d="M6.6045 18.8999C14.5288 18.8999 18.8632 12.4356 18.8632 6.83052C18.8632 6.64651 18.8632 6.46388 18.8506 6.28194C19.6938 5.68235 20.4214 4.93789 21 4.08606C20.2146 4.42928 19.3798 4.65436 18.5262 4.75359C19.425 4.22327 20.098 3.3901 20.4204 2.40699C19.5741 2.90113 18.649 3.24987 17.6841 3.43699C16.0524 1.7292 13.3234 1.64645 11.5878 3.25293C10.4695 4.28877 9.9939 5.83319 10.3414 7.3063C6.8775 7.1347 3.6498 5.52411 1.4616 2.87456C0.31815 4.81288 0.903 7.2916 2.79615 8.53626C2.1105 8.51661 1.43955 8.33487 0.84 8.00613V8.05997C0.84105 10.0789 2.2869 11.8174 4.2966 12.2174C3.6624 12.388 2.9967 12.4127 2.352 12.2897C2.91585 14.0182 4.5339 15.202 6.37665 15.2362C4.851 16.4167 2.96625 17.0578 1.02585 17.0557C0.68355 17.0547 0.34125 17.035 0 16.9947C1.97085 18.2394 4.263 18.8999 6.6045 18.8968" fill="#313030"/>
</svg>
